STARTFONT 2.1
FONT -Adobe-Utopia-Bold-I-Normal--19-180-75-75-P-105-ISO8859-2
SIZE 18 75 75
FONTBOUNDINGBOX 28 18 -4 -4
STARTPROPERTIES 29
FOUNDRY "Adobe"
FAMILY_NAME "Utopia"
WEIGHT_NAME "Bold"
SLANT "I"
SETWIDTH_NAME "Normal"
ADD_STYLE_NAME ""
PIXEL_SIZE 19
POINT_SIZE 180
RESOLUTION_X 75
RESOLUTION_Y 75
SPACING "P"
AVERAGE_WIDTH 105
CHARSET_REGISTRY "ISO8859"
CHARSET_ENCODING "2"
CAP_HEIGHT 13
X_HEIGHT 9
RELATIVE_SETWIDTH 50
RELATIVE_WEIGHT 70
WEIGHT 208
FACE_NAME "Utopia Bold Italic"
COPYRIGHT "Copyright (c) 1989, 1991 Adobe Systems Incorporated.  All rights reserved., Copyright 1996 Cub Soft"
NOTICE "Utopia is a registered trademark of Adobe Systems Incorporated."
DESTINATION 0
FONT_ASCENT 14
FONT_DESCENT 4
DEFAULT_CHAR 32
_ADOBE_PSFONT "Utopia-BoldItalic"
_ADOBE_XFONT "-Adobe-Utopia-Bold-I-Normal--19-180-75-75-P-105-ISO8859-2"
_DEC_DEVICE_FONTNAMES "PS=Utopia-BoldItalic"
ENDPROPERTIES
CHARS 191
STARTCHAR space
ENCODING 32
SWIDTH 210 0
DWIDTH 4 0
BBX 0 0 0 0
BITMAP
ENDCHAR
STARTCHAR exclam
ENCODING 33
SWIDTH 285 0
DWIDTH 5 0
BBX 6 13 0 0
BITMAP
1c
1c
1c
38
38
38
30
30
20
00
60
f0
60
ENDCHAR
STARTCHAR quotedbl
ENCODING 34
SWIDTH 455 0
DWIDTH 8 0
BBX 6 7 1 6
BITMAP
6c
6c
fc
d8
d8
90
90
ENDCHAR
STARTCHAR numbersign
ENCODING 35
SWIDTH 560 0
DWIDTH 11 0
BBX 11 12 0 1
BITMAP
0cc0
0cc0
0cc0
3fe0
1980
1980
3300
3300
ff80
6600
6600
6600
ENDCHAR
STARTCHAR dollar
ENCODING 36
SWIDTH 560 0
DWIDTH 11 0
BBX 11 15 0 -1
BITMAP
0100
07c0
1de0
3a60
3a00
3e00
3f00
1f80
0f80
0b80
0b80
cb80
f700
7c00
1000
ENDCHAR
STARTCHAR percent
ENCODING 37
SWIDTH 896 0
DWIDTH 17 0
BBX 15 13 1 0
BITMAP
3c10
67f0
c620
c640
c6c0
cc80
793c
0266
06c6
04c6
08c6
18cc
1078
ENDCHAR
STARTCHAR ampersand
ENCODING 38
SWIDTH 752 0
DWIDTH 15 0
BBX 14 13 0 0
BITMAP
07c0
0e60
1c60
1c60
0ec0
0f0c
3f0c
7b8c
f1c8
f1d0
f0e0
78f0
3f3c
ENDCHAR
STARTCHAR apostrophe
ENCODING 39
SWIDTH 246 0
DWIDTH 5 0
BBX 5 6 0 7
BITMAP
30
38
38
30
60
c0
ENDCHAR
STARTCHAR parenleft
ENCODING 40
SWIDTH 350 0
DWIDTH 7 0
BBX 7 16 0 -3
BITMAP
0e
1c
38
38
70
70
70
e0
e0
e0
e0
e0
e0
70
70
38
ENDCHAR
STARTCHAR parenright
ENCODING 41
SWIDTH 350 0
DWIDTH 7 0
BBX 7 16 -1 -3
BITMAP
38
1c
1c
0e
0e
0e
0e
0e
0e
1c
1c
1c
38
38
70
e0
ENDCHAR
STARTCHAR asterisk
ENCODING 42
SWIDTH 500 0
DWIDTH 9 0
BBX 8 7 0 6
BITMAP
08
6b
3e
18
7c
d6
10
ENDCHAR
STARTCHAR plus
ENCODING 43
SWIDTH 600 0
DWIDTH 11 0
BBX 10 10 0 0
BITMAP
0c00
0c00
0c00
0c00
ffc0
ffc0
0c00
0c00
0c00
0c00
ENDCHAR
STARTCHAR comma
ENCODING 44
SWIDTH 280 0
DWIDTH 5 0
BBX 5 6 -2 -3
BITMAP
30
38
38
30
60
c0
ENDCHAR
STARTCHAR minus
ENCODING 45
SWIDTH 600 0
DWIDTH 11 0
BBX 10 2 0 4
BITMAP
ffc0
ffc0
ENDCHAR
STARTCHAR period
ENCODING 46
SWIDTH 280 0
DWIDTH 5 0
BBX 4 3 0 0
BITMAP
60
f0
60
ENDCHAR
STARTCHAR slash
ENCODING 47
SWIDTH 260 0
DWIDTH 7 0
BBX 5 13 1 0
BITMAP
18
18
18
30
30
30
60
60
60
60
c0
c0
c0
ENDCHAR
STARTCHAR zero
ENCODING 48
SWIDTH 560 0
DWIDTH 11 0
BBX 11 13 0 0
BITMAP
0780
1dc0
39c0
39e0
79e0
71e0
f1e0
f1c0
f3c0
f380
7380
7700
3c00
ENDCHAR
STARTCHAR one
ENCODING 49
SWIDTH 560 0
DWIDTH 11 0
BBX 9 13 1 0
BITMAP
0780
3f00
0f00
0f00
1e00
1e00
1e00
1e00
1e00
3c00
3c00
3c00
ff00
ENDCHAR
STARTCHAR two
ENCODING 50
SWIDTH 560 0
DWIDTH 11 0
BBX 11 13 0 0
BITMAP
0f80
39c0
71e0
21e0
01e0
03c0
0780
1e00
3800
7040
ffc0
ff80
ff80
ENDCHAR
STARTCHAR three
ENCODING 51
SWIDTH 560 0
DWIDTH 11 0
BBX 11 13 0 0
BITMAP
0fc0
39e0
71e0
21e0
01c0
0380
1f80
03c0
03c0
43c0
e3c0
e780
7e00
ENDCHAR
STARTCHAR four
ENCODING 52
SWIDTH 560 0
DWIDTH 11 0
BBX 10 13 0 0
BITMAP
0380
0780
0700
0e40
0cc0
19c0
33c0
63c0
c780
ffc0
0780
0780
0fc0
ENDCHAR
STARTCHAR five
ENCODING 53
SWIDTH 560 0
DWIDTH 11 0
BBX 11 13 0 0
BITMAP
1fe0
1fc0
1f80
3000
2000
3f00
2380
03c0
03c0
43c0
e3c0
e780
7e00
ENDCHAR
STARTCHAR six
ENCODING 54
SWIDTH 560 0
DWIDTH 11 0
BBX 11 13 0 0
BITMAP
07c0
1de0
38c0
3800
7800
7780
f9c0
f1c0
f1c0
f3c0
7380
7700
3e00
ENDCHAR
STARTCHAR seven
ENCODING 55
SWIDTH 560 0
DWIDTH 11 0
BBX 11 13 0 0
BITMAP
3fe0
7fe0
7fc0
8180
0300
0600
0e00
1c00
1c00
3c00
3c00
3c00
1800
ENDCHAR
STARTCHAR eight
ENCODING 56
SWIDTH 560 0
DWIDTH 11 0
BBX 11 13 0 0
BITMAP
0f80
1cc0
38e0
38e0
3ce0
1fc0
1f80
77c0
e3c0
e1c0
e1c0
6380
3f00
ENDCHAR
STARTCHAR nine
ENCODING 57
SWIDTH 560 0
DWIDTH 11 0
BBX 11 13 0 0
BITMAP
0f80
1dc0
39c0
79e0
71e0
71e0
73e0
3dc0
03c0
0380
6380
f700
7c00
ENDCHAR
STARTCHAR colon
ENCODING 58
SWIDTH 280 0
DWIDTH 5 0
BBX 5 9 0 0
BITMAP
30
78
30
00
00
00
60
f0
60
ENDCHAR
STARTCHAR semicolon
ENCODING 59
SWIDTH 280 0
DWIDTH 5 0
BBX 7 12 -2 -3
BITMAP
0c
1e
0c
00
00
00
30
38
38
30
60
c0
ENDCHAR
STARTCHAR less
ENCODING 60
SWIDTH 600 0
DWIDTH 11 0
BBX 10 10 0 0
BITMAP
00c0
03c0
0f00
3c00
f000
f000
3c00
0f00
03c0
00c0
ENDCHAR
STARTCHAR equal
ENCODING 61
SWIDTH 600 0
DWIDTH 11 0
BBX 10 6 0 2
BITMAP
ffc0
ffc0
0000
0000
ffc0
ffc0
ENDCHAR
STARTCHAR greater
ENCODING 62
SWIDTH 600 0
DWIDTH 11 0
BBX 10 10 0 0
BITMAP
c000
f000
3c00
0f00
03c0
03c0
0f00
3c00
f000
c000
ENDCHAR
STARTCHAR question
ENCODING 63
SWIDTH 454 0
DWIDTH 9 0
BBX 8 13 1 0
BITMAP
3e
77
67
07
0e
38
70
7c
30
00
60
f0
60
ENDCHAR
STARTCHAR at
ENCODING 64
SWIDTH 828 0
DWIDTH 17 0
BBX 14 13 1 0
BITMAP
07e0
1c38
3008
63ec
6664
cc64
ccc4
cccc
cdd8
66f0
6000
3830
0fe0
ENDCHAR
STARTCHAR A
ENCODING 65
SWIDTH 634 0
DWIDTH 12 0
BBX 13 13 -1 0
BITMAP
01c0
01c0
03c0
03c0
05e0
05e0
09e0
09e0
1ff0
10f0
20f0
60f0
f1f8
ENDCHAR
STARTCHAR B
ENCODING 66
SWIDTH 680 0
DWIDTH 13 0
BBX 13 13 0 0
BITMAP
3ff0
1e78
1e78
1e78
3c70
3cf0
3fc0
3ce0
3cf0
78f0
78f0
79e0
ffc0
ENDCHAR
STARTCHAR C
ENCODING 67
SWIDTH 672 0
DWIDTH 13 0
BBX 13 13 0 0
BITMAP
07f0
1e38
3c10
7810
7800
7800
f000
f000
f000
f020
7060
70c0
1f00
ENDCHAR
STARTCHAR D
ENCODING 68
SWIDTH 774 0
DWIDTH 15 0
BBX 14 13 0 0
BITMAP
3fe0
1e38
1e38
1e3c
3c3c
3c3c
3c3c
3c78
3c78
7878
78f0
79e0
ff80
ENDCHAR
STARTCHAR E
ENCODING 69
SWIDTH 622 0
DWIDTH 12 0
BBX 12 13 0 0
BITMAP
3ff0
1e30
1e20
1e00
3c20
3c60
3fc0
3c40
3c00
7820
7860
78c0
ffc0
ENDCHAR
STARTCHAR F
ENCODING 70
SWIDTH 585 0
DWIDTH 12 0
BBX 12 13 0 0
BITMAP
3ff0
1e30
1e20
1e00
3c20
3c60
3fc0
3c40
3c00
7800
7800
7800
fc00
ENDCHAR
STARTCHAR G
ENCODING 71
SWIDTH 726 0
DWIDTH 13 0
BBX 13 13 0 0
BITMAP
07f0
1e38
3c10
7810
7800
7800
f000
f1f8
f0f0
f0f0
70f0
71e0
1f80
ENDCHAR
STARTCHAR H
ENCODING 72
SWIDTH 800 0
DWIDTH 15 0
BBX 15 13 0 0
BITMAP
3f7e
1e3c
1e3c
1e3c
3c78
3c78
3ff8
3c78
3c78
78f0
78f0
78f0
fdf8
ENDCHAR
STARTCHAR I
ENCODING 73
SWIDTH 386 0
DWIDTH 7 0
BBX 8 13 -1 0
BITMAP
3f
1e
1e
1e
3c
3c
3c
3c
3c
78
78
78
fc
ENDCHAR
STARTCHAR J
ENCODING 74
SWIDTH 388 0
DWIDTH 7 0
BBX 10 15 -3 -2
BITMAP
0fc0
0780
0780
0780
0f00
0f00
0f00
0f00
1e00
1e00
1e00
1e00
3c00
3c00
f000
ENDCHAR
STARTCHAR K
ENCODING 75
SWIDTH 688 0
DWIDTH 14 0
BBX 14 13 0 0
BITMAP
3f3c
1e18
1e30
1e60
3cc0
3d80
3fc0
3dc0
3de0
79e0
78f0
78f8
fc7c
ENDCHAR
STARTCHAR L
ENCODING 76
SWIDTH 586 0
DWIDTH 11 0
BBX 11 13 0 0
BITMAP
3f00
1e00
1e00
1e00
3c00
3c00
3c00
3c00
3c00
7820
7860
78c0
ffc0
ENDCHAR
STARTCHAR M
ENCODING 77
SWIDTH 921 0
DWIDTH 18 0
BBX 18 13 0 0
BITMAP
3e0fc0
1e0f80
1e1780
1e1780
2f2f00
2f2f00
2f4f00
27cf00
678f00
479e00
471e00
431e00
e23f00
ENDCHAR
STARTCHAR N
ENCODING 78
SWIDTH 741 0
DWIDTH 14 0
BBX 14 13 0 0
BITMAP
3e1c
1e08
1f08
1f08
3f98
2790
27d0
23d0
63f0
41e0
41e0
40e0
e0e0
ENDCHAR
STARTCHAR O
ENCODING 79
SWIDTH 761 0
DWIDTH 14 0
BBX 14 13 0 0
BITMAP
07e0
1e38
3c38
783c
783c
783c
f03c
f078
f078
f078
70f0
71e0
1f80
ENDCHAR
STARTCHAR P
ENCODING 80
SWIDTH 660 0
DWIDTH 12 0
BBX 13 13 -1 0
BITMAP
3ff0
1e78
1e78
1e78
3c78
3c70
3cf0
3fc0
3c00
7800
7800
7800
fc00
ENDCHAR
STARTCHAR Q
ENCODING 81
SWIDTH 761 0
DWIDTH 14 0
BBX 14 17 0 -4
BITMAP
07e0
1e38
3c38
783c
783c
783c
f03c
f078
f078
f078
70f0
71e0
1f80
0700
0780
03c0
00f0
ENDCHAR
STARTCHAR R
ENCODING 82
SWIDTH 681 0
DWIDTH 13 0
BBX 13 13 0 0
BITMAP
3ff0
1e78
1e78
1e78
3c70
3cf0
3fc0
3ce0
3cf0
78f0
78f0
78f0
fc78
ENDCHAR
STARTCHAR S
ENCODING 83
SWIDTH 551 0
DWIDTH 11 0
BBX 11 13 0 0
BITMAP
07c0
1ce0
3860
3820
3c00
3f00
1f80
0fc0
03c0
81c0
c1c0
e380
7e00
ENDCHAR
STARTCHAR T
ENCODING 84
SWIDTH 616 0
DWIDTH 12 0
BBX 12 13 1 0
BITMAP
fff0
cf30
8f10
0f00
1e00
1e00
1e00
1e00
1e00
3c00
3c00
3c00
7e00
ENDCHAR
STARTCHAR U
ENCODING 85
SWIDTH 776 0
DWIDTH 15 0
BBX 15 13 0 0
BITMAP
7e7e
3c3c
3c3c
3c3c
7878
7878
7878
7878
f0f0
f0f0
f0f0
79e0
3fc0
ENDCHAR
STARTCHAR V
ENCODING 86
SWIDTH 630 0
DWIDTH 12 0
BBX 13 13 0 0
BITMAP
fc78
7830
7820
7840
3c40
3c80
3c80
3d00
3d00
1e00
1e00
1c00
1c00
ENDCHAR
STARTCHAR W
ENCODING 87
SWIDTH 920 0
DWIDTH 18 0
BBX 19 13 0 0
BITMAP
fcf1e0
78f0c0
78f080
78f100
78f100
797200
3d7a00
3e7c00
3e7c00
3c7800
3c7800
387800
387000
ENDCHAR
STARTCHAR X
ENCODING 88
SWIDTH 630 0
DWIDTH 12 0
BBX 12 13 0 0
BITMAP
7ef0
3c60
3c40
1e80
1e80
0f00
0f00
0f00
1780
1780
23c0
63c0
f7e0
ENDCHAR
STARTCHAR Y
ENCODING 89
SWIDTH 622 0
DWIDTH 12 0
BBX 12 13 1 0
BITMAP
fcf0
7860
7840
7880
7900
3e00
3e00
3c00
3c00
7800
7800
7800
fc00
ENDCHAR
STARTCHAR Z
ENCODING 90
SWIDTH 618 0
DWIDTH 12 0
BBX 12 13 0 0
BITMAP
3ff0
71f0
63e0
43c0
07c0
0f80
0f00
1f00
3e00
3c20
7c60
f8e0
ffc0
ENDCHAR
STARTCHAR bracketleft
ENCODING 91
SWIDTH 350 0
DWIDTH 6 0
BBX 7 16 0 -3
BITMAP
1e
1c
1c
1c
38
38
38
38
70
70
70
70
e0
e0
e0
f0
ENDCHAR
STARTCHAR backslash
ENCODING 92
SWIDTH 460 0
DWIDTH 7 0
BBX 5 13 1 0
BITMAP
c0
c0
c0
60
60
60
30
30
30
30
18
18
18
ENDCHAR
STARTCHAR bracketright
ENCODING 93
SWIDTH 350 0
DWIDTH 6 0
BBX 7 16 -1 -3
BITMAP
1e
0e
0e
0e
1c
1c
1c
1c
38
38
38
38
70
70
70
f0
ENDCHAR
STARTCHAR asciicircum
ENCODING 94
SWIDTH 600 0
DWIDTH 11 0
BBX 10 10 0 3
BITMAP
0c00
0c00
1e00
1e00
3300
3300
6180
6180
c0c0
c0c0
ENDCHAR
STARTCHAR underscore
ENCODING 95
SWIDTH 500 0
DWIDTH 9 0
BBX 9 1 0 -3
BITMAP
ff80
ENDCHAR
STARTCHAR grave
ENCODING 96
SWIDTH 400 0
DWIDTH 7 0
BBX 3 2 2 10
BITMAP
c0
60
ENDCHAR
STARTCHAR a
ENCODING 97
SWIDTH 596 0
DWIDTH 11 0
BBX 12 9 0 0
BITMAP
0ee0
39e0
70e0
71c0
f1c0
e3c0
e790
eba0
71c0
ENDCHAR
STARTCHAR b
ENCODING 98
SWIDTH 586 0
DWIDTH 11 0
BBX 10 14 0 0
BITMAP
3c00
1c00
1c00
3c00
3800
3b80
3dc0
79c0
71c0
73c0
f380
e380
e700
be00
ENDCHAR
STARTCHAR c
ENCODING 99
SWIDTH 456 0
DWIDTH 9 0
BBX 9 9 0 0
BITMAP
0f00
3980
7100
7000
f000
e000
e100
e200
7c00
ENDCHAR
STARTCHAR d
ENCODING 100
SWIDTH 609 0
DWIDTH 12 0
BBX 12 14 0 0
BITMAP
00f0
0070
0070
00f0
00e0
0fe0
38e0
71c0
71c0
f1c0
e3c0
e790
eba0
71c0
ENDCHAR
STARTCHAR e
ENCODING 101
SWIDTH 476 0
DWIDTH 9 0
BBX 9 9 0 0
BITMAP
0f00
3b80
7380
7700
fc00
e000
e100
e200
7c00
ENDCHAR
STARTCHAR f
ENCODING 102
SWIDTH 348 0
DWIDTH 7 0
BBX 12 18 -3 -4
BITMAP
00e0
01b0
03b0
0380
0380
0fe0
0700
0700
0f00
0e00
0e00
0e00
1e00
1c00
1c00
dc00
d800
7000
ENDCHAR
STARTCHAR g
ENCODING 103
SWIDTH 522 0
DWIDTH 10 0
BBX 12 13 -1 -4
BITMAP
0ff0
1dc0
39c0
39c0
3b80
1f00
1800
3e00
3f80
63c0
e1c0
e380
7f00
ENDCHAR
STARTCHAR h
ENCODING 104
SWIDTH 629 0
DWIDTH 12 0
BBX 12 14 0 0
BITMAP
3c00
1c00
1c00
3c00
3800
39c0
3ae0
74e0
79e0
71c0
71c0
f3d0
e3a0
e1c0
ENDCHAR
STARTCHAR i
ENCODING 105
SWIDTH 339 0
DWIDTH 6 0
BBX 6 13 0 0
BITMAP
18
3c
18
00
78
38
78
70
70
f0
e4
e8
70
ENDCHAR
STARTCHAR j
ENCODING 106
SWIDTH 333 0
DWIDTH 6 0
BBX 9 17 -3 -4
BITMAP
0300
0780
0300
0000
0f00
0700
0700
0f00
0e00
0e00
0e00
1e00
1c00
1c00
dc00
d800
7000
ENDCHAR
STARTCHAR k
ENCODING 107
SWIDTH 570 0
DWIDTH 11 0
BBX 11 14 0 0
BITMAP
3c00
1c00
1c00
3c00
3800
38c0
39e0
7380
7600
7e00
f700
e720
e3c0
e380
ENDCHAR
STARTCHAR l
ENCODING 108
SWIDTH 327 0
DWIDTH 6 0
BBX 6 14 0 0
BITMAP
3c
1c
1c
3c
38
38
38
70
70
70
f0
e4
e8
70
ENDCHAR
STARTCHAR m
ENCODING 109
SWIDTH 914 0
DWIDTH 17 0
BBX 18 9 0 0
BITMAP
79c700
3aeb80
3cf380
79e780
71c700
71c700
f3cf40
e38e80
e38700
ENDCHAR
STARTCHAR n
ENCODING 110
SWIDTH 635 0
DWIDTH 12 0
BBX 12 9 0 0
BITMAP
79c0
3ae0
3ce0
79e0
71c0
71c0
f3d0
e3a0
e1c0
ENDCHAR
STARTCHAR o
ENCODING 111
SWIDTH 562 0
DWIDTH 10 0
BBX 10 9 0 0
BITMAP
0f80
39c0
71c0
71c0
f3c0
e380
e380
e700
7e00
ENDCHAR
STARTCHAR p
ENCODING 112
SWIDTH 606 0
DWIDTH 12 0
BBX 12 13 -1 -4
BITMAP
3ce0
1d70
1e70
3c70
38f0
38e0
78e0
7dc0
7780
7000
e000
e000
e000
ENDCHAR
STARTCHAR q
ENCODING 113
SWIDTH 584 0
DWIDTH 11 0
BBX 11 13 0 -4
BITMAP
0ee0
39e0
70e0
71c0
f1c0
e3c0
e780
eb80
7380
0380
0700
0700
0700
ENDCHAR
STARTCHAR r
ENCODING 114
SWIDTH 440 0
DWIDTH 8 0
BBX 9 9 0 0
BITMAP
7b00
3f80
3b00
7800
7000
7000
f000
e000
e000
ENDCHAR
STARTCHAR s
ENCODING 115
SWIDTH 417 0
DWIDTH 8 0
BBX 7 9 0 0
BITMAP
1e
36
72
78
38
3c
9c
d8
f0
ENDCHAR
STARTCHAR t
ENCODING 116
SWIDTH 359 0
DWIDTH 7 0
BBX 7 11 0 0
BITMAP
08
18
7e
38
38
78
70
70
f4
e8
70
ENDCHAR
STARTCHAR u
ENCODING 117
SWIDTH 634 0
DWIDTH 12 0
BBX 12 9 0 0
BITMAP
78e0
38e0
79e0
71c0
71c0
f3c0
e790
eba0
71c0
ENDCHAR
STARTCHAR v
ENCODING 118
SWIDTH 518 0
DWIDTH 10 0
BBX 10 9 0 0
BITMAP
7980
39c0
78c0
70c0
7180
f180
e300
e600
7800
ENDCHAR
STARTCHAR w
ENCODING 119
SWIDTH 795 0
DWIDTH 15 0
BBX 15 9 0 0
BITMAP
79cc
39ce
71c6
73c6
738c
e38c
e798
efb0
71c0
ENDCHAR
STARTCHAR x
ENCODING 120
SWIDTH 516 0
DWIDTH 10 0
BBX 9 9 0 0
BITMAP
7980
3980
3a00
1c00
1c00
1c00
2e80
cf00
ce00
ENDCHAR
STARTCHAR y
ENCODING 121
SWIDTH 489 0
DWIDTH 9 0
BBX 11 13 -2 -4
BITMAP
3c60
1c60
1cc0
1cc0
1c80
1f00
0f00
0e00
0c00
0c00
0800
d000
e000
ENDCHAR
STARTCHAR z
ENCODING 122
SWIDTH 466 0
DWIDTH 9 0
BBX 9 9 0 0
BITMAP
3f80
7f00
4600
0c00
1800
3100
7b00
fe00
9c00
ENDCHAR
STARTCHAR braceleft
ENCODING 123
SWIDTH 340 0
DWIDTH 6 0
BBX 7 16 0 -3
BITMAP
0e
1c
1c
1c
38
38
30
e0
70
70
70
e0
e0
e0
e0
70
ENDCHAR
STARTCHAR bar
ENCODING 124
SWIDTH 265 0
DWIDTH 5 0
BBX 2 13 1 0
BITMAP
c0
c0
c0
c0
c0
c0
c0
c0
c0
c0
c0
c0
c0
ENDCHAR
STARTCHAR braceright
ENCODING 125
SWIDTH 340 0
DWIDTH 6 0
BBX 7 16 -1 -3
BITMAP
1c
0e
0e
0e
1c
1c
1c
0e
1c
38
38
38
70
70
70
e0
ENDCHAR
STARTCHAR asciitilde
ENCODING 126
SWIDTH 600 0
DWIDTH 11 0
BBX 10 3 0 4
BITMAP
38c0
7f80
c700
ENDCHAR
STARTCHAR nobreakspace
ENCODING 160
SWIDTH 210 0
DWIDTH 4 0
BBX 0 0 0 0
BITMAP
ENDCHAR
STARTCHAR Aogonek
ENCODING 161
SWIDTH 634 0
DWIDTH 12 0
BBX 13 17 -1 -4
BITMAP
01c0
01c0
03c0
03c0
05e0
05e0
09e0
09e0
1ff0
10f0
20f0
60f0
f1f8
0180
0300
0600
0380
ENDCHAR
STARTCHAR breve
ENCODING 162
SWIDTH 400 0
DWIDTH 7 0
BBX 6 2 1 10
BITMAP
cc
78
ENDCHAR
STARTCHAR Lstroke
ENCODING 163
SWIDTH 592 0
DWIDTH 11 0
BBX 12 13 -1 0
BITMAP
1f80
0f00
0f00
0f00
1ec0
1f00
1e00
3e00
de00
3c10
3c30
3c60
7fe0
ENDCHAR
STARTCHAR currency
ENCODING 164
SWIDTH 560 0
DWIDTH 11 0
BBX 9 9 1 3
BITMAP
dd80
ff80
6300
c180
c180
c180
6300
ff80
dd80
ENDCHAR
STARTCHAR Lcaron
ENCODING 165
SWIDTH 746 0
DWIDTH 14 0
BBX 14 15 0 0
BITMAP
0018
001c
3f1c
1e18
1e30
1e60
3c00
3c00
3c00
3c00
3c00
7820
7860
78c0
ffc0
ENDCHAR
STARTCHAR Sacute
ENCODING 166
SWIDTH 551 0
DWIDTH 11 0
BBX 11 16 0 0
BITMAP
0180
0300
0000
07c0
1ce0
3860
3820
3c00
3f00
1f80
0fc0
03c0
81c0
c1c0
e380
7e00
ENDCHAR
STARTCHAR section
ENCODING 167
SWIDTH 568 0
DWIDTH 11 0
BBX 10 15 0 -2
BITMAP
0780
09c0
1880
1c00
2e00
4700
6380
71c0
38c0
1cc0
0e80
0700
4200
e600
7c00
ENDCHAR
STARTCHAR diaeresis
ENCODING 168
SWIDTH 400 0
DWIDTH 7 0
BBX 5 2 1 10
BITMAP
d8
d8
ENDCHAR
STARTCHAR Scaron
ENCODING 169
SWIDTH 551 0
DWIDTH 11 0
BBX 11 16 0 0
BITMAP
0680
0300
0000
07c0
1ce0
3860
3820
3c00
3f00
1f80
0fc0
03c0
81c0
c1c0
e380
7e00
ENDCHAR
STARTCHAR Scedilla
ENCODING 170
SWIDTH 551 0
DWIDTH 11 0
BBX 11 17 0 -4
BITMAP
07c0
1ce0
3860
3820
3c00
3f00
1f80
0fc0
03c0
81c0
c1c0
e380
7e00
0200
0700
0300
0e00
ENDCHAR
STARTCHAR Tcaron
ENCODING 171
SWIDTH 616 0
DWIDTH 12 0
BBX 12 16 1 0
BITMAP
0680
0300
0000
fff0
cf30
8f10
0f00
1e00
1e00
1e00
1e00
1e00
3c00
3c00
3c00
7e00
ENDCHAR
STARTCHAR Zacute
ENCODING 172
SWIDTH 618 0
DWIDTH 12 0
BBX 12 16 0 0
BITMAP
0180
0300
0000
3ff0
71f0
63e0
43c0
07c0
0f80
0f00
1f00
3e00
3c20
7c60
f8e0
ffc0
ENDCHAR
STARTCHAR hyphen
ENCODING 173
SWIDTH 392 0
DWIDTH 7 0
BBX 5 2 1 4
BITMAP
f8
f8
ENDCHAR
STARTCHAR Zcaron
ENCODING 174
SWIDTH 618 0
DWIDTH 12 0
BBX 12 16 0 0
BITMAP
0680
0300
0000
3ff0
71f0
63e0
43c0
07c0
0f80
0f00
1f00
3e00
3c20
7c60
f8e0
ffc0
ENDCHAR
STARTCHAR Zabovedot
ENCODING 175
SWIDTH 618 0
DWIDTH 12 0
BBX 12 16 0 0
BITMAP
0300
0300
0000
3ff0
71f0
63e0
43c0
07c0
0f80
0f00
1f00
3e00
3c20
7c60
f8e0
ffc0
ENDCHAR
STARTCHAR degree
ENCODING 176
SWIDTH 375 0
DWIDTH 7 0
BBX 6 6 1 7
BITMAP
78
cc
84
84
cc
78
ENDCHAR
STARTCHAR aogonek
ENCODING 177
SWIDTH 596 0
DWIDTH 11 0
BBX 12 13 0 -4
BITMAP
0ee0
39e0
70e0
71c0
f1c0
e3c0
e790
eba0
71c0
0300
0600
0c00
0700
ENDCHAR
STARTCHAR ogonek
ENCODING 178
SWIDTH 350 0
DWIDTH 6 0
BBX 4 4 1 -4
BITMAP
30
60
c0
70
ENDCHAR
STARTCHAR lstroke
ENCODING 179
SWIDTH 339 0
DWIDTH 6 0
BBX 7 14 0 0
BITMAP
3c
1c
1c
3c
3a
3c
38
70
f0
70
f0
e4
e8
70
ENDCHAR
STARTCHAR acute
ENCODING 180
SWIDTH 400 0
DWIDTH 7 0
BBX 3 2 2 10
BITMAP
60
c0
ENDCHAR
STARTCHAR lcaron
ENCODING 181
SWIDTH 640 0
DWIDTH 12 0
BBX 12 16 0 0
BITMAP
0060
0070
3c70
1c60
1cc0
3d80
3800
3800
3800
7000
7000
7000
f000
e400
e800
7000
ENDCHAR
STARTCHAR sacute
ENCODING 182
SWIDTH 417 0
DWIDTH 8 0
BBX 7 12 0 0
BITMAP
06
0c
00
1e
36
72
78
38
3c
9c
d8
f0
ENDCHAR
STARTCHAR caron
ENCODING 183
SWIDTH 400 0
DWIDTH 7 0
BBX 4 2 1 10
BITMAP
d0
60
ENDCHAR
STARTCHAR cedilla
ENCODING 184
SWIDTH 400 0
DWIDTH 7 0
BBX 4 4 2 -4
BITMAP
20
70
30
e0
ENDCHAR
STARTCHAR scaron
ENCODING 185
SWIDTH 417 0
DWIDTH 8 0
BBX 7 12 0 0
BITMAP
1a
0c
00
1e
36
72
78
38
3c
9c
d8
f0
ENDCHAR
STARTCHAR scedilla
ENCODING 186
SWIDTH 417 0
DWIDTH 8 0
BBX 7 13 0 -4
BITMAP
1e
36
72
78
38
3c
9c
d8
f0
08
1c
0c
38
ENDCHAR
STARTCHAR tcaron
ENCODING 187
SWIDTH 586 0
DWIDTH 11 0
BBX 11 16 0 0
BITMAP
00c0
00e0
00e0
00c0
0180
0b00
1800
7e00
3800
3800
7800
7000
7000
f400
e800
7000
ENDCHAR
STARTCHAR zacute
ENCODING 188
SWIDTH 466 0
DWIDTH 9 0
BBX 9 12 0 0
BITMAP
0600
0c00
0000
3f80
7f00
4600
0c00
1800
3100
7b00
fe00
9c00
ENDCHAR
STARTCHAR doubleacute
ENCODING 189
SWIDTH 400 0
DWIDTH 7 0
BBX 6 2 1 10
BITMAP
6c
d8
ENDCHAR
STARTCHAR zcaron
ENCODING 190
SWIDTH 466 0
DWIDTH 9 0
BBX 9 12 0 0
BITMAP
1a00
0c00
0000
3f80
7f00
4600
0c00
1800
3100
7b00
fe00
9c00
ENDCHAR
STARTCHAR zabovedot
ENCODING 191
SWIDTH 466 0
DWIDTH 9 0
BBX 9 12 0 0
BITMAP
0c00
0c00
0000
3f80
7f00
4600
0c00
1800
3100
7b00
fe00
9c00
ENDCHAR
STARTCHAR Racute
ENCODING 192
SWIDTH 681 0
DWIDTH 13 0
BBX 13 16 0 0
BITMAP
00c0
0180
0000
3ff0
1e78
1e78
1e78
3c70
3cf0
3fc0
3ce0
3cf0
78f0
78f0
78f0
fc78
ENDCHAR
STARTCHAR Aacute
ENCODING 193
SWIDTH 634 0
DWIDTH 13 0
BBX 13 14 -1 0
BITMAP
0060
00c0
0000
01c0
03c0
03c0
05e0
05e0
09e0
1fe0
10f0
20f0
60f0
f1f8
ENDCHAR
STARTCHAR Acircumflex
ENCODING 194
SWIDTH 634 0
DWIDTH 13 0
BBX 13 14 -1 0
BITMAP
00c0
0160
0000
01c0
03c0
03c0
05e0
05e0
09e0
1fe0
10f0
20f0
60f0
f1f8
ENDCHAR
STARTCHAR Abreve
ENCODING 195
SWIDTH 634 0
DWIDTH 12 0
BBX 13 16 -1 0
BITMAP
0330
01e0
0000
01c0
01c0
03c0
03c0
05e0
05e0
09e0
09e0
1ff0
10f0
20f0
60f0
f1f8
ENDCHAR
STARTCHAR Adiaeresis
ENCODING 196
SWIDTH 634 0
DWIDTH 13 0
BBX 13 14 -1 0
BITMAP
0360
0360
0000
01c0
03c0
03c0
05e0
05e0
09e0
1fe0
10f0
20f0
60f0
f1f8
ENDCHAR
STARTCHAR Lacute
ENCODING 197
SWIDTH 586 0
DWIDTH 11 0
BBX 11 16 0 0
BITMAP
0300
0600
0000
3f00
1e00
1e00
1e00
3c00
3c00
3c00
3c00
3c00
7820
7860
78c0
ffc0
ENDCHAR
STARTCHAR Cacute
ENCODING 198
SWIDTH 672 0
DWIDTH 13 0
BBX 13 16 0 0
BITMAP
00c0
0180
0000
07f0
1e38
3c10
7810
7800
7800
f000
f000
f000
f020
7060
70c0
1f00
ENDCHAR
STARTCHAR Ccedilla
ENCODING 199
SWIDTH 672 0
DWIDTH 13 0
BBX 13 17 0 -4
BITMAP
07f0
1e38
3c10
7810
7800
7800
f000
f000
f000
f020
7060
70c0
1f00
0200
0700
0300
0e00
ENDCHAR
STARTCHAR Ccaron
ENCODING 200
SWIDTH 672 0
DWIDTH 13 0
BBX 13 16 0 0
BITMAP
0340
0180
0000
07f0
1e38
3c10
7810
7800
7800
f000
f000
f000
f020
7060
70c0
1f00
ENDCHAR
STARTCHAR Eacute
ENCODING 201
SWIDTH 622 0
DWIDTH 12 0
BBX 12 14 0 0
BITMAP
00c0
0180
0000
3ff0
1e30
1e10
1e00
3c40
3fc0
3c40
7800
7820
7860
ffe0
ENDCHAR
STARTCHAR Eogonek
ENCODING 202
SWIDTH 622 0
DWIDTH 12 0
BBX 12 17 0 -4
BITMAP
3ff0
1e30
1e20
1e00
3c20
3c60
3fc0
3c40
3c00
7820
7860
78c0
ffc0
0300
0600
0c00
0700
ENDCHAR
STARTCHAR Ediaeresis
ENCODING 203
SWIDTH 622 0
DWIDTH 12 0
BBX 12 14 0 0
BITMAP
06c0
06c0
0000
3ff0
1e30
1e10
1e00
3c40
3fc0
3c40
7800
7820
7860
ffe0
ENDCHAR
STARTCHAR Ecaron
ENCODING 204
SWIDTH 622 0
DWIDTH 12 0
BBX 12 16 0 0
BITMAP
0340
0180
0000
3ff0
1e30
1e20
1e00
3c20
3c60
3fc0
3c40
3c00
7820
7860
78c0
ffc0
ENDCHAR
STARTCHAR Iacute
ENCODING 205
SWIDTH 386 0
DWIDTH 7 0
BBX 8 14 -1 0
BITMAP
03
06
00
3f
1e
1e
1e
3c
3c
3c
78
78
78
fc
ENDCHAR
STARTCHAR Icircumflex
ENCODING 206
SWIDTH 386 0
DWIDTH 7 0
BBX 8 14 -1 0
BITMAP
06
0b
00
3f
1e
1e
1e
3c
3c
3c
78
78
78
fc
ENDCHAR
STARTCHAR Dcaron
ENCODING 207
SWIDTH 774 0
DWIDTH 15 0
BBX 14 16 0 0
BITMAP
0340
0180
0000
3fe0
1e38
1e38
1e3c
3c3c
3c3c
3c3c
3c78
3c78
7878
78f0
79e0
ff80
ENDCHAR
STARTCHAR Dstroke
ENCODING 208
SWIDTH 780 0
DWIDTH 15 0
BBX 14 13 0 0
BITMAP
3fe0
1e38
1e38
1e3c
3c3c
3c3c
ff3c
3c78
3c78
7878
78f0
79e0
ff80
ENDCHAR
STARTCHAR Nacute
ENCODING 209
SWIDTH 741 0
DWIDTH 14 0
BBX 14 16 0 0
BITMAP
0060
00c0
0000
3e1c
1e08
1f08
1f08
3f98
2790
27d0
23d0
63f0
41e0
41e0
40e0
e0e0
ENDCHAR
STARTCHAR Ncaron
ENCODING 210
SWIDTH 741 0
DWIDTH 14 0
BBX 14 16 0 0
BITMAP
01a0
00c0
0000
3e1c
1e08
1f08
1f08
3f98
2790
27d0
23d0
63f0
41e0
41e0
40e0
e0e0
ENDCHAR
STARTCHAR Oacute
ENCODING 211
SWIDTH 761 0
DWIDTH 14 0
BBX 14 14 0 0
BITMAP
0060
00c0
0000
07e0
1e38
3c38
783c
783c
f03c
f078
f078
70f0
71e0
1f80
ENDCHAR
STARTCHAR Ocircumflex
ENCODING 212
SWIDTH 761 0
DWIDTH 14 0
BBX 14 14 0 0
BITMAP
00c0
0160
0000
07e0
1e38
3c38
783c
783c
f03c
f078
f078
70f0
71e0
1f80
ENDCHAR
STARTCHAR Odoubleacute
ENCODING 213
SWIDTH 761 0
DWIDTH 14 0
BBX 14 16 0 0
BITMAP
0360
06c0
0000
07e0
1e38
3c38
783c
783c
783c
f03c
f078
f078
f078
70f0
71e0
1f80
ENDCHAR
STARTCHAR Odiaeresis
ENCODING 214
SWIDTH 761 0
DWIDTH 14 0
BBX 14 14 0 0
BITMAP
0360
0360
0000
07e0
1e38
3c38
783c
783c
f03c
f078
f078
70f0
71e0
1f80
ENDCHAR
STARTCHAR multiply
ENCODING 215
SWIDTH 600 0
DWIDTH 11 0
BBX 9 9 1 0
BITMAP
4100
e380
7700
3e00
1c00
3e00
7700
e380
4100
ENDCHAR
STARTCHAR Rcaron
ENCODING 216
SWIDTH 681 0
DWIDTH 13 0
BBX 13 16 0 0
BITMAP
0340
0180
0000
3ff0
1e78
1e78
1e78
3c70
3cf0
3fc0
3ce0
3cf0
78f0
78f0
78f0
fc78
ENDCHAR
STARTCHAR Uring
ENCODING 217
SWIDTH 776 0
DWIDTH 15 0
BBX 15 17 0 0
BITMAP
00c0
0120
00c0
0000
7e7e
3c3c
3c3c
3c3c
7878
7878
7878
7878
f0f0
f0f0
f0f0
79e0
3fc0
ENDCHAR
STARTCHAR Uacute
ENCODING 218
SWIDTH 776 0
DWIDTH 15 0
BBX 15 14 0 0
BITMAP
00c0
0180
0000
7e7e
3c3c
3c3c
7878
7878
7878
7878
f0f0
f0f0
79e0
3fc0
ENDCHAR
STARTCHAR Udoubleacute
ENCODING 219
SWIDTH 776 0
DWIDTH 15 0
BBX 15 16 0 0
BITMAP
01b0
0360
0000
7e7e
3c3c
3c3c
3c3c
7878
7878
7878
7878
f0f0
f0f0
f0f0
79e0
3fc0
ENDCHAR
STARTCHAR Udiaeresis
ENCODING 220
SWIDTH 776 0
DWIDTH 15 0
BBX 15 14 0 0
BITMAP
0360
0360
0000
7e7e
3c3c
3c3c
7878
7878
7878
7878
f0f0
f0f0
79e0
3fc0
ENDCHAR
STARTCHAR Yacute
ENCODING 221
SWIDTH 622 0
DWIDTH 12 0
BBX 12 14 1 0
BITMAP
0180
0300
0000
fcf0
7860
7840
7880
7900
3e00
3c00
3c00
7800
7800
fc00
ENDCHAR
STARTCHAR Tcedilla
ENCODING 222
SWIDTH 616 0
DWIDTH 12 0
BBX 12 17 1 -4
BITMAP
fff0
cf30
8f10
0f00
1e00
1e00
1e00
1e00
1e00
3c00
3c00
3c00
7e00
0200
0700
0300
0e00
ENDCHAR
STARTCHAR ssharp
ENCODING 223
SWIDTH 628 0
DWIDTH 12 0
BBX 15 18 -3 -4
BITMAP
0078
01cc
038e
038e
038e
0f18
0730
0770
0f78
0e3c
0e1c
0e1c
1ed8
1cf0
1c00
dc00
d800
7000
ENDCHAR
STARTCHAR racute
ENCODING 224
SWIDTH 440 0
DWIDTH 8 0
BBX 9 12 0 0
BITMAP
0600
0c00
0000
7b00
3f80
3b00
7800
7000
7000
f000
e000
e000
ENDCHAR
STARTCHAR aacute
ENCODING 225
SWIDTH 596 0
DWIDTH 11 0
BBX 12 12 0 0
BITMAP
00c0
0180
0000
0ee0
39e0
70e0
71c0
f1c0
e3c0
e790
eba0
71c0
ENDCHAR
STARTCHAR acircumflex
ENCODING 226
SWIDTH 596 0
DWIDTH 11 0
BBX 12 12 0 0
BITMAP
0180
02c0
0000
0ee0
39e0
70e0
71c0
f1c0
e3c0
e790
eba0
71c0
ENDCHAR
STARTCHAR abreve
ENCODING 227
SWIDTH 596 0
DWIDTH 11 0
BBX 12 12 0 0
BITMAP
0cc0
0780
0000
0ee0
39e0
70e0
71c0
f1c0
e3c0
e790
eba0
71c0
ENDCHAR
STARTCHAR adiaeresis
ENCODING 228
SWIDTH 596 0
DWIDTH 11 0
BBX 12 12 0 0
BITMAP
06c0
06c0
0000
0ee0
39e0
70e0
71c0
f1c0
e3c0
e790
eba0
71c0
ENDCHAR
STARTCHAR lacute
ENCODING 229
SWIDTH 327 0
DWIDTH 6 0
BBX 7 17 0 0
BITMAP
06
0c
00
3c
1c
1c
3c
38
38
38
70
70
70
f0
e4
e8
70
ENDCHAR
STARTCHAR cacute
ENCODING 230
SWIDTH 456 0
DWIDTH 9 0
BBX 9 12 0 0
BITMAP
0300
0600
0000
0f00
3980
7100
7000
f000
e000
e100
e200
7c00
ENDCHAR
STARTCHAR ccedilla
ENCODING 231
SWIDTH 456 0
DWIDTH 9 0
BBX 9 13 0 -4
BITMAP
0f00
3980
7100
7000
f000
e000
e100
6200
3c00
0800
1c00
0c00
3800
ENDCHAR
STARTCHAR ccaron
ENCODING 232
SWIDTH 456 0
DWIDTH 9 0
BBX 9 12 0 0
BITMAP
0d00
0600
0000
0f00
3980
7100
7000
f000
e000
e100
e200
7c00
ENDCHAR
STARTCHAR eacute
ENCODING 233
SWIDTH 476 0
DWIDTH 9 0
BBX 9 12 0 0
BITMAP
0300
0600
0000
0f00
3b80
7380
7700
fc00
e000
e100
e200
7c00
ENDCHAR
STARTCHAR eogonek
ENCODING 234
SWIDTH 476 0
DWIDTH 9 0
BBX 9 13 0 -4
BITMAP
0f00
3b80
7380
7700
fc00
e000
e100
e200
7c00
0600
0c00
1800
0e00
ENDCHAR
STARTCHAR ediaeresis
ENCODING 235
SWIDTH 476 0
DWIDTH 9 0
BBX 9 12 0 0
BITMAP
1b00
1b00
0000
0f00
3b80
7380
7700
fc00
e000
e100
e200
7c00
ENDCHAR
STARTCHAR ecaron
ENCODING 236
SWIDTH 476 0
DWIDTH 9 0
BBX 9 12 0 0
BITMAP
0d00
0600
0000
0f00
3b80
7380
7700
fc00
e000
e100
e200
7c00
ENDCHAR
STARTCHAR iacute
ENCODING 237
SWIDTH 339 0
DWIDTH 6 0
BBX 6 12 0 0
BITMAP
0c
18
00
78
38
78
70
70
f0
e4
e8
70
ENDCHAR
STARTCHAR icircumflex
ENCODING 238
SWIDTH 339 0
DWIDTH 6 0
BBX 6 12 0 0
BITMAP
18
2c
00
78
38
78
70
70
f0
e4
e8
70
ENDCHAR
STARTCHAR dcaron
ENCODING 239
SWIDTH 960 0
DWIDTH 18 0
BBX 18 16 0 0
BITMAP
000180
0001c0
00f1c0
007180
007300
00f600
00e000
0fe000
38e000
71c000
71c000
f1c000
e3c000
e79000
eba000
71c000
ENDCHAR
STARTCHAR dstroke
ENCODING 240
SWIDTH 853 0
DWIDTH 16 0
BBX 16 14 0 0
BITMAP
00f0
0070
0fff
00f0
00e0
0fe0
38e0
71c0
71c0
f1c0
e3c0
e790
eba0
71c0
ENDCHAR
STARTCHAR nacute
ENCODING 241
SWIDTH 635 0
DWIDTH 12 0
BBX 12 12 0 0
BITMAP
0300
0600
0000
79c0
3ae0
3ce0
79e0
71c0
71c0
f3d0
e3a0
e1c0
ENDCHAR
STARTCHAR ncaron
ENCODING 242
SWIDTH 635 0
DWIDTH 12 0
BBX 12 12 0 0
BITMAP
0d00
0600
0000
79c0
3ae0
3ce0
79e0
71c0
71c0
f3d0
e3a0
e1c0
ENDCHAR
STARTCHAR oacute
ENCODING 243
SWIDTH 562 0
DWIDTH 10 0
BBX 10 12 0 0
BITMAP
0300
0600
0000
0f80
39c0
71c0
71c0
f3c0
e380
e380
e700
7e00
ENDCHAR
STARTCHAR ocircumflex
ENCODING 244
SWIDTH 562 0
DWIDTH 10 0
BBX 10 12 0 0
BITMAP
0600
0b00
0000
0f80
39c0
71c0
71c0
f3c0
e380
e380
e700
7e00
ENDCHAR
STARTCHAR odoubleacute
ENCODING 245
SWIDTH 562 0
DWIDTH 10 0
BBX 10 12 0 0
BITMAP
0d80
1b00
0000
0f80
39c0
71c0
71c0
f3c0
e380
e380
e700
7e00
ENDCHAR
STARTCHAR odiaeresis
ENCODING 246
SWIDTH 562 0
DWIDTH 10 0
BBX 10 12 0 0
BITMAP
0d80
0d80
0000
0f80
39c0
71c0
71c0
f3c0
e380
e380
e700
7e00
ENDCHAR
STARTCHAR division
ENCODING 247
SWIDTH 600 0
DWIDTH 11 0
BBX 10 10 0 0
BITMAP
0c00
1e00
0c00
0000
ffc0
ffc0
0000
0c00
1e00
0c00
ENDCHAR
STARTCHAR rcaron
ENCODING 248
SWIDTH 440 0
DWIDTH 8 0
BBX 9 12 0 0
BITMAP
1a00
0c00
0000
7b00
3f80
3b00
7800
7000
7000
f000
e000
e000
ENDCHAR
STARTCHAR uring
ENCODING 249
SWIDTH 634 0
DWIDTH 12 0
BBX 12 13 0 0
BITMAP
0600
0900
0600
0000
78e0
38e0
79e0
71c0
71c0
f3c0
e790
eba0
71c0
ENDCHAR
STARTCHAR uacute
ENCODING 250
SWIDTH 634 0
DWIDTH 12 0
BBX 12 12 0 0
BITMAP
0180
0300
0000
78e0
38e0
79e0
71c0
71c0
f3c0
e790
eba0
71c0
ENDCHAR
STARTCHAR udoubleacute
ENCODING 251
SWIDTH 634 0
DWIDTH 12 0
BBX 12 12 0 0
BITMAP
0d80
1b00
0000
78e0
38e0
79e0
71c0
71c0
f3c0
e790
eba0
71c0
ENDCHAR
STARTCHAR udiaeresis
ENCODING 252
SWIDTH 634 0
DWIDTH 12 0
BBX 12 12 0 0
BITMAP
0d80
0d80
0000
78e0
38e0
79e0
71c0
71c0
f3c0
e790
eba0
71c0
ENDCHAR
STARTCHAR yacute
ENCODING 253
SWIDTH 489 0
DWIDTH 9 0
BBX 11 16 -2 -4
BITMAP
00c0
0180
0000
3c60
1c60
1cc0
1cc0
1c80
1f00
0f00
0e00
0c00
0c00
0800
d000
e000
ENDCHAR
STARTCHAR tcedilla
ENCODING 254
SWIDTH 359 0
DWIDTH 7 0
BBX 7 15 0 -4
BITMAP
08
18
7e
38
38
78
70
70
f4
e8
70
08
1c
0c
38
ENDCHAR
STARTCHAR abovedot
ENCODING 255
SWIDTH 402 0
DWIDTH 7 0
BBX 2 2 3 10
BITMAP
c0
c0
ENDCHAR
ENDFONT
